<?xml version="1.0" encoding="UTF-8"?>
<svg id="Layer_1" xmlns="http://www.w3.org/2000/svg" version="1.1" viewBox="0 0 417.78 256.01">
  <!-- Generator: Adobe Illustrator 29.6.0, SVG Export Plug-In . SVG Version: 2.1.1 Build 207)  -->
  <defs>
    <style>
      .st0 {
        fill: #b30838;
      }
    </style>
  </defs>
  <path class="st0" d="M61.3,96.19c0,.86.7,1.56,1.56,1.56h8.44c.86,0,1.56-.7,1.56-1.56v-2.85h-11.56v2.85Z"/>
  <path class="st0" d="M67.08,145.35c-2.12,0-3.84,1.72-3.84,3.84,0,.19.01.36.04.53v8.1h7.6v-8.1c.02-.18.04-.35.04-.53,0-2.12-1.72-3.84-3.84-3.84Z"/>
  <polygon class="st0" points="203.69 139.98 182.58 139.98 182.58 141.32 202.35 141.32 203.69 139.98"/>
  <polygon class="st0" points="238.44 139.98 217.42 139.98 218.76 141.32 238.44 141.32 238.44 139.98"/>
  <rect class="st0" x="185.84" y="143.63" width="5.95" height="13.25"/>
  <rect class="st0" x="196.69" y="143.63" width="5.95" height="13.25"/>
  <rect class="st0" x="229.13" y="143.63" width="5.95" height="13.25"/>
  <path class="st0" d="M213.68,156.62v-9.87c.02-.15.04-.3.04-.46,0-1.86-1.51-3.37-3.37-3.37s-3.37,1.51-3.37,3.37c0,.16.01.31.04.46v9.87h6.67Z"/>
  <rect class="st0" x="218.51" y="143.63" width="5.95" height="13.25"/>
  <rect class="st0" x="170.98" y="147.75" width="2.11" height="6.72"/>
  <rect class="st0" x="170.98" y="136.53" width="2.11" height="6.72"/>
  <rect class="st0" x="170.98" y="125.29" width="2.11" height="6.72"/>
  <rect class="st0" x="174.81" y="147.75" width="2.11" height="6.72"/>
  <rect class="st0" x="174.81" y="136.53" width="2.11" height="6.72"/>
  <rect class="st0" x="174.81" y="125.29" width="2.11" height="6.72"/>
  <rect class="st0" x="178.65" y="147.75" width="2.11" height="6.72"/>
  <rect class="st0" x="178.65" y="136.53" width="2.11" height="6.72"/>
  <rect class="st0" x="178.65" y="125.29" width="2.11" height="6.72"/>
  <path class="st0" d="M359.42,96.19v-2.85h-11.56v2.85c0,.86.7,1.56,1.56,1.56h8.44c.86,0,1.56-.7,1.56-1.56Z"/>
  <path class="st0" d="M353.64,145.35c-2.12,0-3.84,1.72-3.84,3.84,0,.19.02.36.04.53v8.1h7.6v-8.1c.03-.18.04-.35.04-.53,0-2.12-1.72-3.84-3.84-3.84Z"/>
  <rect class="st0" x="247.64" y="147.75" width="2.11" height="6.72"/>
  <rect class="st0" x="247.64" y="136.53" width="2.11" height="6.72"/>
  <rect class="st0" x="247.64" y="125.29" width="2.11" height="6.72"/>
  <rect class="st0" x="243.8" y="147.75" width="2.11" height="6.72"/>
  <rect class="st0" x="243.8" y="136.53" width="2.11" height="6.72"/>
  <rect class="st0" x="243.8" y="125.29" width="2.11" height="6.72"/>
  <rect class="st0" x="239.96" y="147.75" width="2.11" height="6.72"/>
  <rect class="st0" x="239.96" y="136.53" width="2.11" height="6.72"/>
  <rect class="st0" x="239.96" y="125.29" width="2.11" height="6.72"/>
  <path class="st0" d="M394.07,68.59c-12.5-16.84-29.89-30.57-50.3-39.72C305.42,11.69,262.9,3.63,209.98,3.48c-52.22-.13-94.7,7.93-133.68,25.39-20.43,9.15-37.81,22.83-50.29,39.58-13.3,17.85-20.33,38.4-20.33,59.43s7.03,41.62,20.32,59.54c12.5,16.84,29.89,30.57,50.3,39.72,38.36,17.18,80.87,25.24,133.79,25.39,52.23.14,94.71-7.93,133.68-25.39,20.43-9.15,37.82-22.84,50.29-39.58,13.3-17.85,20.33-38.41,20.33-59.44s-7.03-41.62-20.32-59.54ZM392.22,186.18c-12.24,16.43-29.31,29.87-49.38,38.85-38.67,17.32-80.85,25.32-132.73,25.18-52.59-.13-94.8-8.14-132.86-25.18-20.05-8.99-37.13-22.46-49.39-38.99-13-17.52-19.87-37.63-19.87-58.17s6.87-40.61,19.87-58.05c12.24-16.43,29.32-29.87,49.38-38.85C115.92,13.65,158.09,5.65,209.98,5.79c52.59.14,94.8,8.14,132.86,25.19,20.05,8.98,37.13,22.46,49.39,38.99,13,17.51,19.87,37.63,19.87,58.16s-6.87,40.6-19.88,58.06Z"/>
  <path class="st0" d="M388.53,72.71c-11.79-15.89-28.25-28.87-47.57-37.53-37.45-16.77-79.07-24.65-130.98-24.78-51.21-.13-92.79,7.74-130.84,24.78-19.35,8.67-35.8,21.6-47.57,37.4-12.4,16.65-18.96,35.78-18.96,55.31s6.55,38.7,18.96,55.42c11.79,15.9,28.24,28.87,47.57,37.53,37.45,16.77,79.06,24.65,130.98,24.79,51.21.14,92.79-7.74,130.84-24.79,19.35-8.67,35.8-21.6,47.57-37.4,12.41-16.65,18.96-35.77,18.96-55.3s-6.56-38.7-18.96-55.42ZM384.83,180.68c-11.3,15.16-27.13,27.6-45.76,35.94-37.44,16.77-78.41,24.51-128.94,24.38-51.26-.13-92.28-7.89-129.12-24.38-18.61-8.34-34.43-20.81-45.76-36.07-11.81-15.91-18.05-34.13-18.05-52.68s6.24-36.7,18.05-52.55c11.3-15.17,27.13-27.6,45.76-35.95,37.44-16.77,78.41-24.52,128.94-24.38,51.25.14,92.28,7.88,129.12,24.38,18.61,8.34,34.44,20.81,45.76,36.07,11.81,15.91,18.05,34.13,18.05,52.67s-6.24,36.7-18.05,52.56Z"/>
  <path class="st0" d="M84.67,180.99c0-2.5,2.53-3.3,4.54-3.3s4.14.83,5.52,2.28v-4.1c-1.69-.54-3.48-.8-5.24-.8-4.29,0-8.82,1.74-8.82,6.3,0,7.68,12.09,6.67,12.09,12.32,0,2.54-3.02,3.77-5.02,3.77-2.74,0-5.62-1.15-7.7-3l1.02,4.53c2,.76,4.15,1.09,6.29,1.09,5.48,0,9.41-3.63,9.41-7.5,0-6.71-12.09-6.63-12.09-11.59Z"/>
  <path class="st0" d="M126.38,175.77c2.74.98,1.58,3.91.95,5.98l-3.97,13.26-4.88-15.69c-.49-1.6-.74-2.75-.53-3.66h-4.95v.11c1.93,1.01,1.23,3.37.56,5.58l-4.11,13.77-5.24-16.85c-.21-.69-.56-1.81-.42-2.61h-5.13v.11c1.76,1.23,2.28,3.59,2.92,5.58l4.15,13.37c1.16,3.73,1.48,3.47,4.67,5.87l5.48-18.3,3.87,12.47c1.16,3.73,1.4,3.55,4.64,5.83l7.41-24.93h-5.41v.11Z"/>
  <path class="st0" d="M153.41,194.25l-7.31-18.59h-5.55v.11c1.69.54,1.02,2.06.53,3.37l-5.87,15.11c-.77,2.07-1.37,4.09-3.41,5.14v.11h6.46v-.11c-1.69-.65-1.44-1.71-.7-3.73l1.83-5.11h8.85l1.9,5.11c.95,2.54,1.23,2.94-.49,3.73v.11h7.21v-.11c-2-1.05-2.64-3.08-3.45-5.14ZM140.3,187.87l3.48-9.13,3.45,9.13h-6.92Z"/>
  <path class="st0" d="M174.1,194.43l-5.06-6.56c2.88-.69,5.59-3.19,5.59-6.37s-2.56-5.84-7.27-5.84h-8.36v.11c1.79.69,1.55,3.33,1.55,5v13.66c0,1.63.25,4.31-1.55,4.96v.11h6.71v-.11c-1.79-.65-1.58-3.3-1.58-4.96v-16.23c.81-.15,1.58-.25,2.39-.29,2.35-.11,4.53,1.41,4.53,4.02,0,3.41-3.27,4.75-6.08,5.18l3.23,5.11,4.29,5.47c1.05,1.34,2.21,1.82,4.08,1.82h3.23c-2-1.31-4.22-3.19-5.69-5.07Z"/>
  <path class="st0" d="M195.89,175.66h-13.98c-.46-.07-.91-.07-1.34-.25h-.11l-1.23,4.31h.11c1.09-1.05,2.67-1.45,4.18-1.45h3.09v16.16c0,1.63.21,4.28-1.55,4.96v.11h6.96v-.11c-1.86-1.12-1.83-2.54-1.83-4.6v-16.52h3.16c1.16,0,2.57.19,3.02,1.45h.11l1.12-4.31h-.11c-.46.22-1.02.25-1.62.25Z"/>
  <path class="st0" d="M219.04,175.77c1.79.69,1.55,3.33,1.55,5v4.49h-12.69v-4.49c0-1.67-.21-4.31,1.55-5v-.11h-6.67v.11c1.79.69,1.54,3.33,1.54,4.96v13.69c0,1.63.21,4.28-1.54,4.96v.11h6.67v-.11c-1.75-.69-1.55-3.33-1.55-4.96v-6.56h12.69v6.56c0,1.63.25,4.28-1.55,4.96v.11h6.71v-.11c-1.79-.69-1.58-3.33-1.58-4.96v-13.69c0-1.63-.21-4.28,1.58-4.96v-.11h-6.71v.11Z"/>
  <path class="st0" d="M262.4,195.7l-2.32-17.79c0-.84.25-1.88,1.09-2.14v-.11h-6.08v.04c0,.76-.25,1.49-.53,2.25l-5.84,15.36-6.6-15.97c-.21-.51-.49-1.05-.49-1.63v-.04h-6.15v.11c1.62.9,1.23,2.36,1.09,3.37l-2,15.18c-.28,1.96-.49,3.73-1.97,5.07v.11h5.73v-.11c-1.65-.76-1.41-2.36-1.12-4.56l2-15.58,6.68,16.34c.84,2.03,1.34,3.01,3.09,4.38l7.87-20.76,2,17.46c0,1.24-.21,2.32-1.44,2.72v.11h6.78v-.11c-1.41-1.01-1.58-1.99-1.79-3.69Z"/>
  <path class="st0" d="M281.65,175.04c-7.38-.18-13.18,5.58-13.18,12.46,0,7.43,5.87,12.57,12.82,12.57s12.93-5.36,12.93-12.76c0-6.52-5.2-12.32-12.58-12.28ZM281.48,197.47c-5.52,0-9-5.21-9-10.29,0-5.47,3.48-9.53,8.93-9.53s8.82,5.11,8.82,10.4-3.41,9.42-8.75,9.42Z"/>
  <path class="st0" d="M314.37,194.43l-5.06-6.56c2.88-.69,5.59-3.19,5.59-6.37s-2.57-5.84-7.27-5.84h-8.36v.11c1.79.69,1.55,3.33,1.55,5v13.66c0,1.63.25,4.31-1.55,4.96v.11h6.71v-.11c-1.79-.65-1.58-3.3-1.58-4.96v-16.23c.81-.15,1.58-.25,2.39-.29,2.36-.11,4.53,1.41,4.53,4.02,0,3.41-3.27,4.75-6.07,5.18l3.23,5.11,4.29,5.47c1.05,1.34,2.21,1.82,4.08,1.82h3.23c-2-1.31-4.22-3.19-5.69-5.07Z"/>
  <path class="st0" d="M332.18,196.89l-4.46-.43v-8.58h2.6c1.09,0,2.57-.04,3.13,1.01h.11v-3.84h-.11c-.42.22-.98.22-1.55.22h-4.18v-6.74c1.12-.22,2.35-.26,3.58-.26,1.62,0,3.06.15,4.15,1.45h.11v-4.24h-.11c-.46.26-1.05.18-1.65.18h-11.24v.11c1.79.69,1.58,3.33,1.58,5v13.66c0,1.63.21,4.31-1.58,4.96v.11h14.65l1.58-4.75h-.11c-1.76,1.59-4.18,2.35-6.5,2.13Z"/>
  <path class="st0" d="M315.29,159.05c-.05-.37-.09-.78-.13-1.22h15.13v-35.51h-16.99c-.01-.56-.03-1.1-.04-1.63h18.59v37.14h15.22c-.02-.13-.03-.26-.03-.39v-12.84c0-1.17.8-2.12,1.8-2.12h1.93v-6.14h1.92v6.14h1.92v-6.14h1.92v6.14h1.93c.99,0,1.79.95,1.79,2.12v12.84c0,.13-.01.26-.03.39h15.22v-62.19h-3.07v13.47l-10.21-10.21h-17.59l-9.63,9.63v-12.9h-3.07v12.28h-18.64c.04-.76.09-1.35.15-1.73.34-2.05,1.63-5.04,3-8.2.71-1.65,1.47-3.41,2.18-5.22,1.61,1.11,3.64,1.8,5.87,1.88,3.22.11,6.1-1.11,7.95-3.05,2.9.98,5.88.74,8.13-.49-.23-1.14-.74-2.25-1.46-3.26,2.27.36,4.49,0,6.26-.96-.41-1.98-1.62-3.86-3.41-5.31,2.94-.14,5.53-1.36,7.18-3.22-.91-1.48-2.36-2.69-4.12-3.48,1.49-1.42,2.47-3.18,2.8-4.99-2.45-1.25-5.7-1.37-8.76-.05-.21.09-.4.2-.6.3.44-.67.82-1.4,1.12-2.19,1.32-3.43.89-7.03-.84-9.47-2.15.72-4.12,2.39-5.43,4.7.05-.46.09-.91.09-1.39,0-3.68-1.69-6.88-4.19-8.54-1.62,1.35-2.81,3.39-3.28,5.76-.8.54-1.55,1.21-2.21,2.01-.24,0-.48,0-.73.03,1-1.62,1.59-3.61,1.59-5.78,0-3.68-1.69-6.88-4.19-8.54-1.36,1.12-2.41,2.73-2.99,4.62-.15-.2-.29-.4-.46-.59-1.87-2.15-4.33-3.41-6.73-3.68-1.71-1.09-3.61-1.64-5.41-1.6-.43,1.57-.37,3.31.15,5.03-.66-.98-1.48-1.82-2.41-2.43-2.12,1.76-3.51,4.7-3.51,8.03,0,1.38.24,2.69.66,3.88-.24.31-.46.64-.67.97-.27-.4-.56-.8-.89-1.17-1.45-1.67-3.26-2.79-5.11-3.34.62-1.84.73-3.72.27-5.4-2.75-.06-5.73,1.24-7.92,3.75-.27.3-.51.62-.74.95-.19-1.29-.61-2.47-1.24-3.5.24-.04.48-.07.72-.13,3.59-.82,6.33-3.19,7.38-6-2.19-1.67-5.36-2.37-8.61-1.62-2.16.5-4,1.56-5.36,2.93-.88-1.41-2.06-2.54-3.41-3.25-.28.29-.54.6-.79.93h0c-.53-.02-1.06.03-1.6.12-.33-3.16-1.91-5.84-4.12-7.31-1.74,1.44-2.97,3.68-3.36,6.28-.16-.47-.35-.93-.58-1.39-1.49-2.98-4.05-4.98-6.73-5.61-1.49,2.61-1.57,6.23.07,9.52.01.02.02.04.04.07-1.98-1.64-4.35-2.5-6.57-2.44-.49,1.79-.36,3.83.39,5.78-2.08-1.95-4.68-2.96-7.1-2.9-.67,2.43-.18,5.29,1.42,7.79-.15-.07-.3-.16-.45-.24-3.04-1.37-6.29-1.29-8.77-.08.49,2.96,2.72,5.81,6.08,7.32,2.49,1.12,5.12,1.26,7.35.62.1.5.25,1.02.42,1.53-.45-.11-.89-.17-1.34-.21-1.37-.68-2.94-1.11-4.64-1.17-3.33-.11-6.32,1.19-8.14,3.25,1.57,2.55,4.72,4.35,8.4,4.47,1.42.04,2.77-.18,4-.59.25.61.57,1.21.94,1.8-1.37-.08-2.7.12-3.89.57.23,2.99,2.21,6.03,5.42,7.82.86.47,1.75.82,2.64,1.06-3.08-.24-5.93.74-7.82,2.51,1.33,2.69,4.29,4.78,7.94,5.24,2.78.36,5.39-.3,7.36-1.64,1.86,5.07,3.87,11.34,4.06,15.23.06,1.18.13,3.07.21,5.45h-15.63l-1.1-2.68h-6.24l-1.63-1.63v-8.53h-59.61v8.24l-1.92,1.92h-6.14l-1.09,2.68h-15.63c.08-2.38.15-4.27.21-5.45.19-3.89,2.2-10.16,4.06-15.23,1.96,1.34,4.58,2,7.36,1.64,3.65-.46,6.61-2.55,7.94-5.24-1.89-1.76-4.74-2.75-7.82-2.51.89-.24,1.78-.59,2.64-1.06,3.21-1.79,5.19-4.83,5.42-7.82-1.18-.46-2.52-.65-3.89-.57.37-.59.7-1.19.95-1.8,1.23.41,2.58.63,4,.59,3.68-.12,6.82-1.93,8.4-4.47-1.82-2.06-4.81-3.36-8.14-3.25-1.7.06-3.28.48-4.64,1.17-.45.04-.89.1-1.34.21.18-.51.32-1.03.43-1.53,2.23.64,4.85.5,7.35-.62,3.36-1.51,5.58-4.37,6.07-7.32-2.47-1.21-5.72-1.28-8.77.08-.16.07-.3.16-.45.24,1.6-2.5,2.08-5.36,1.42-7.79-2.42-.06-5.02.95-7.11,2.9.75-1.95.88-3.99.39-5.78-2.22-.06-4.58.8-6.56,2.44,0-.02.02-.04.04-.07,1.65-3.29,1.57-6.91.07-9.52-2.68.63-5.24,2.64-6.73,5.61-.23.46-.42.92-.58,1.39-.39-2.6-1.62-4.84-3.36-6.28-2.22,1.47-3.79,4.15-4.12,7.31-.54-.09-1.07-.14-1.6-.13,0,0,0,0,0,.01-.24-.33-.5-.65-.78-.93-1.35.71-2.52,1.84-3.41,3.25-1.37-1.38-3.21-2.44-5.36-2.93-3.25-.74-6.42-.05-8.61,1.62,1.05,2.81,3.79,5.18,7.38,6,.24.06.48.09.72.13-.64,1.03-1.06,2.21-1.25,3.5-.23-.33-.47-.65-.73-.95-2.19-2.51-5.17-3.81-7.92-3.75-.46,1.68-.36,3.56.26,5.4-1.85.55-3.65,1.67-5.1,3.34-.33.37-.62.77-.89,1.17-.2-.34-.43-.66-.67-.97.43-1.19.67-2.5.67-3.88,0-3.33-1.39-6.27-3.51-8.03-.93.62-1.74,1.45-2.4,2.43.52-1.72.58-3.46.15-5.03-1.8-.05-3.7.51-5.41,1.6-2.4.28-4.86,1.53-6.73,3.68-.16.19-.3.39-.46.59-.59-1.88-1.64-3.49-2.99-4.62-2.5,1.66-4.19,4.86-4.19,8.54,0,2.17.6,4.17,1.59,5.78-.25-.02-.49-.03-.73-.03-.66-.8-1.41-1.47-2.21-2.01-.47-2.38-1.66-4.42-3.28-5.76-2.5,1.66-4.19,4.86-4.19,8.54,0,.47.03.93.09,1.39-1.3-2.31-3.27-3.97-5.43-4.7-1.73,2.45-2.17,6.04-.84,9.47.3.79.68,1.52,1.12,2.19-.2-.1-.39-.21-.6-.3-3.06-1.32-6.31-1.21-8.77.05.33,1.81,1.31,3.57,2.8,4.99-1.76.8-3.21,2-4.12,3.48,1.65,1.86,4.24,3.08,7.18,3.22-1.78,1.45-3,3.33-3.41,5.31,1.77.96,3.99,1.32,6.26.96-.72,1.01-1.22,2.12-1.46,3.26,2.26,1.22,5.23,1.46,8.13.49,1.84,1.94,4.73,3.15,7.95,3.05,2.23-.08,4.27-.77,5.87-1.88.71,1.81,1.46,3.57,2.18,5.22,1.37,3.16,2.66,6.15,3,8.2.06.38.11.97.14,1.73h-18.63v-12.28h-3.07v12.9l-9.63-9.63h-17.59l-10.21,10.21v-13.47h-3.07v62.19h15.22c-.02-.13-.04-.26-.04-.39v-12.84c0-1.17.81-2.12,1.8-2.12h1.93v-6.14h1.92v6.14h1.92v-6.14h1.92v6.14h1.93c.99,0,1.79.95,1.79,2.12v12.84c0,.13-.01.26-.03.39h15.22v-37.14h18.6c-.01.54-.03,1.07-.04,1.63h-16.99v35.51h15.13c-.04.44-.09.85-.13,1.22h-60.4v1.47l62.52.04c.2-1.38.4-3.44.61-5.95h0c.05-.59.09-1.21.14-1.84,0,0,0,0,0-.01.02-.32.04-.64.07-.97h0c.26-3.63.5-7.9.72-12.35,0-.09,0-.19.01-.28.01-.3.03-.62.04-.92,0-.1,0-.21.01-.32.01-.29.03-.58.04-.87,0-.13.02-.27.02-.41l.04-.77c0-.16.01-.32.02-.49.01-.24.02-.48.03-.72,0-.16.02-.33.02-.49,0-.25.02-.5.03-.75,0-.15.01-.29.02-.44.01-.25.02-.49.03-.74,0-.18.01-.36.02-.54,0-.22.02-.43.02-.65,0-.18.01-.36.02-.53,0-.22.02-.45.03-.67,0-.19.01-.37.02-.56,0-.21.02-.42.02-.63,0-.19.02-.37.02-.56,0-.21.01-.42.02-.63,0-.19.01-.38.02-.57,0-.19.01-.38.02-.56,0-.2.01-.41.02-.61,0-.19.01-.38.02-.57,0-.19.01-.39.02-.59,0-.18,0-.37.01-.54,0-.2.01-.4.02-.6,0-.15,0-.29.01-.43,0-.22.01-.44.02-.66.01-.56.03-1.1.04-1.63,0-.02,0-.03,0-.05,0-.43.02-.85.03-1.27v-.02c.08-4.05.11-7.56.04-10.08,0,0,0-.02,0-.03,0-.23-.01-.45-.02-.66v-.02c0-.21-.02-.42-.02-.61,0,0,0-.02,0-.03-.04-.93-.1-1.65-.18-2.11-1.15-6.91-10.44-20.03-7.68-30.13.58-2.12,1.15-3.65,1.15-3.65,0,0-.96,14.39,7.87,23.42,0,0,3.65-19.39,9.41-22.84,0,0-7.17,13.1-6.96,46.74v.02c0,.96.02,1.96.04,2.96,0,.19,0,.38,0,.57.01.61.02,1.21.04,1.8,0,.13,0,.25,0,.37,0,.45.02.89.03,1.33,0,.21,0,.41.01.62,0,.35.01.71.02,1.05,0,.23.01.46.02.69,0,.31.02.62.02.92,0,.22.01.43.02.64,0,.34.01.67.02,1,0,.18,0,.36.01.54,0,.32.01.63.02.94,0,.2.01.4.02.6,0,.31.02.62.02.91,0,.17,0,.34.02.51,0,.33.02.66.03.98,0,.14,0,.28.01.42.01.35.02.69.03,1.03,0,.11,0,.22,0,.34,0,.34.02.67.03,1,0,.11,0,.22.01.33,0,.37.02.73.03,1.08,0,.06,0,.12,0,.19.03.84.05,1.66.08,2.44v.07c.02.36.03.7.04,1.05,0,.09,0,.17,0,.26,0,.29.02.57.03.85,0,.08,0,.14,0,.22.01.28.02.56.03.83,0,.1,0,.19.01.28,0,.23.02.47.03.69,0,.12,0,.24.01.36,0,.21.02.42.03.62,0,.11,0,.22.01.33,0,.21.02.43.03.64,0,.08,0,.16,0,.24,0,.22.02.44.03.65,0,.08,0,.16,0,.25,0,.2.02.39.03.58,0,.09,0,.18.01.27.01.23.02.45.03.66,0,.04,0,.07,0,.11.05,1.06.1,2.02.14,2.89,0,.03,0,.05,0,.07.01.19.02.37.03.55,0,.03,0,.06,0,.1,0,.17.02.33.03.48,0,.04,0,.09,0,.13,0,.15.02.3.03.45,0,.04,0,.07,0,.11,0,.14.02.28.03.42,0,.04,0,.08,0,.12,0,.12.02.25.02.37,0,.05,0,.09,0,.14,0,.12.02.24.02.35,0,.02,0,.05,0,.06.08,1.21.16,2.12.22,2.8l30.35-.11c-.04.83-.07,1.65-.11,2.49l-.13,3.01h12.17l-.64-2.28c-.21-.75-.38-1.84-.53-3.22h108.64c-.15,1.38-.32,2.47-.53,3.22l-.64,2.28h12.17l-.13-3.01c-.04-.84-.07-1.66-.11-2.49h30.36c.07-.66.14-1.54.22-2.69,0-.02,0-.04,0-.06,0-.11.02-.23.03-.35,0-.05,0-.09,0-.14,0-.12.01-.25.02-.37,0-.04,0-.08,0-.12,0-.13.01-.28.02-.42,0-.04,0-.08,0-.11,0-.15.02-.29.03-.45,0-.04,0-.09,0-.13,0-.15.02-.32.03-.48,0-.03,0-.07,0-.1.01-.18.02-.37.03-.55,0-.03,0-.05,0-.07.05-.87.1-1.83.15-2.89,0-.03,0-.07,0-.11,0-.21.02-.44.03-.66,0-.09,0-.18.01-.27,0-.19.02-.38.03-.58,0-.08,0-.16,0-.25.01-.21.02-.43.03-.65,0-.08,0-.16,0-.24.01-.21.02-.43.03-.64,0-.11,0-.22.01-.33,0-.2.02-.41.02-.62,0-.12.01-.23.02-.36,0-.22.02-.46.02-.69,0-.09,0-.18.01-.28.01-.27.02-.55.03-.83,0-.08,0-.14,0-.22.01-.28.02-.56.03-.85,0-.09,0-.17,0-.26.01-.35.02-.69.04-1.05,0-.02,0-.05,0-.07.03-.78.05-1.6.08-2.44,0-.06,0-.13,0-.19.01-.36.02-.71.03-1.08,0-.11,0-.22.01-.33,0-.33.02-.66.03-1,0-.11,0-.23.01-.34,0-.34.02-.68.03-1.03,0-.14,0-.28.01-.42,0-.32.02-.65.03-.98,0-.17,0-.34.01-.51,0-.3.01-.6.02-.91,0-.2.01-.4.01-.6,0-.31.02-.62.03-.94,0-.18,0-.36.02-.54,0-.33.02-.66.02-1,0-.21.01-.42.02-.64,0-.3.02-.61.02-.92,0-.23.01-.46.02-.69,0-.35.02-.7.02-1.05,0-.21.01-.41.02-.62,0-.44.02-.88.03-1.33,0-.12,0-.25,0-.37.01-.59.03-1.2.04-1.8,0-.19,0-.38,0-.57.02-1,.04-1.99.04-2.96v-.02c.21-33.64-6.96-46.74-6.96-46.74,5.76,3.45,9.41,22.84,9.41,22.84,8.83-9.02,7.87-23.42,7.87-23.42,0,0,.58,1.53,1.15,3.65,2.76,10.11-6.53,23.23-7.68,30.13-.08.46-.13,1.18-.18,2.11,0,.01,0,.02,0,.03,0,.19-.02.4-.02.61v.02c0,.21-.02.43-.02.66,0,0,0,.02,0,.03-.06,2.52-.04,6.03.04,10.08,0,0,0,.02,0,.02,0,.42.01.84.03,1.27,0,.02,0,.03,0,.05.01.54.02,1.07.04,1.63,0,.22.01.44.02.66,0,.15,0,.29.01.43,0,.2.01.4.02.6,0,.18,0,.36.02.54,0,.2.01.39.02.59,0,.19.01.38.02.57,0,.21.01.41.02.61,0,.19.01.37.02.56,0,.19.01.38.02.57,0,.21.01.42.02.63,0,.19.01.37.02.56,0,.21.02.42.02.63,0,.19.01.37.02.56,0,.22.02.44.03.67,0,.18.01.36.02.53,0,.22.02.43.03.65,0,.18.01.36.02.54,0,.24.02.49.03.74,0,.15.01.3.02.44.01.25.02.5.03.75,0,.16.02.33.02.49.01.24.02.48.03.72,0,.16.01.32.02.49l.04.77c0,.14.01.28.02.41.01.29.03.58.04.87,0,.11,0,.22.02.32.01.31.03.62.04.92,0,.09,0,.19.02.28.21,4.45.46,8.72.72,12.35h0c.02.34.04.66.07.98,0,0,0,0,0,0,.05.64.09,1.25.14,1.85h0c.2,2.49.41,4.54.6,5.92h62.53v-1.48h-60.4ZM343.76,154.38h-3.46v-6.72h3.46v6.72ZM343.76,143.15h-3.46v-6.71h3.46v6.71ZM343.76,131.92h-3.46v-6.72h3.46v6.72ZM344.66,113.45v7.8h-5.27v-7.8c-.02-.12-.03-.24-.03-.36,0-.05,0-.09.01-.13l2.52-2.52s.08-.02.13-.02c.02,0,.04,0,.06,0l2.59,2.59s0,.04,0,.07c0,.12-.01.25-.03.36ZM352.68,131.92h-1.92v-6.53h1.92v6.53ZM356.52,131.92h-1.92v-6.53h1.92v6.53ZM366.98,154.38h-3.45v-6.72h3.45v6.72ZM366.98,143.15h-3.45v-6.71h3.45v6.71ZM366.98,131.92h-3.45v-6.72h3.45v6.72ZM367.89,113.45v7.8h-5.27v-7.8c-.01-.12-.03-.24-.03-.36,0-.05,0-.09.01-.13l2.52-2.52s.08-.02.13-.02c.02,0,.04,0,.06,0l2.59,2.59s0,.04,0,.07c0,.12-.01.25-.03.36ZM358.55,113.23l-1.1.77v7.22h-7.42v-7.22l-1.1-.77,4.81-4.81,4.81,4.81ZM334.05,78.93s.08.06.11.09c-.11,0-.21.02-.32.03.07-.04.14-.08.21-.12ZM327.47,83.52c.66-.96,1.13-1.98,1.45-3.01.43-.03.87-.08,1.31-.16.26,1.05.72,2.07,1.39,3.01-1.44-.23-2.86-.16-4.15.16ZM328.31,68.5c.46.5.96.94,1.5,1.3.78-.64,1.45-1.44,2-2.37-.18,1.49-.05,2.93.34,4.24-.67.16-1.34.36-2,.65-1.39.6-2.59,1.44-3.56,2.42-.03-1.13-.21-2.21-.53-3.21.88-.84,1.66-1.86,2.26-3.04ZM325.72,85.53c.23.6.54,1.19.9,1.75-.79-.2-1.61-.32-2.46-.35-.12,0-.23,0-.34,0,.67-.4,1.3-.87,1.9-1.41ZM86.57,79.02s.08-.06.11-.09c.07.04.14.08.21.12-.11,0-.21-.02-.32-.03ZM88.91,67.43c.55.93,1.23,1.73,2,2.37.54-.36,1.04-.8,1.5-1.3.6,1.18,1.37,2.2,2.26,3.04-.32,1-.51,2.08-.53,3.21-.97-.98-2.17-1.82-3.56-2.42-.66-.29-1.34-.49-2-.65.39-1.31.53-2.76.34-4.24ZM89.1,83.36c.66-.94,1.13-1.96,1.39-3.01.44.08.88.13,1.31.16.32,1.03.79,2.05,1.45,3.01-1.29-.32-2.71-.39-4.15-.16ZM96.56,86.93c-.85.03-1.68.15-2.46.35.37-.56.68-1.15.9-1.75.6.54,1.24,1.01,1.9,1.41-.11,0-.23-.02-.34,0ZM57.2,154.38h-3.46v-6.72h3.46v6.72ZM57.2,143.15h-3.46v-6.71h3.46v6.71ZM57.2,131.92h-3.46v-6.72h3.46v6.72ZM58.1,113.45v7.8h-5.27v-7.8c-.02-.12-.03-.24-.03-.36,0-.06.02-.12.02-.17l2.47-2.48c.06,0,.11-.02.17-.02,0,0,.01,0,.02,0l2.64,2.64s0,.01,0,.02c0,.12-.01.25-.03.36ZM66.12,131.92h-1.92v-6.53h1.92v6.53ZM69.96,131.92h-1.92v-6.53h1.92v6.53ZM70.79,114.01v7.22h-7.42v-7.22l-1.1-.77,4.81-4.81,4.81,4.81-1.1.77ZM80.42,154.38h-3.46v-6.72h3.46v6.72ZM80.42,143.15h-3.46v-6.71h3.46v6.71ZM80.42,131.92h-3.46v-6.72h3.46v6.72ZM81.33,113.45v7.8h-5.27v-7.8c-.01-.12-.03-.24-.03-.36,0-.06.02-.12.02-.17l2.47-2.48c.06,0,.11-.02.17-.02,0,0,.01,0,.02,0l2.64,2.64v.02c0,.12,0,.25-.03.36ZM97.06,154.47h-3.45v-6.72h3.45v6.72ZM97.06,143.25h-3.45v-6.72h3.45v6.72ZM97.06,132.01h-3.45v-6.72h3.45v6.72ZM105.7,154.47h-3.46v-6.72h3.46v6.72ZM105.7,143.25h-3.46v-6.72h3.46v6.72ZM105.7,132.01h-3.46v-6.72h3.46v6.72ZM96.53,115.51v3.83h-7.66v-10.08h10.51l-3.96,5.47,1.11.77ZM107.49,119.35h-4.82v-3.83l1.11-.77-3.96-5.47h7.73c.06,2.45.03,5.98-.06,10.08ZM101.26,61.95c.56-.62,1.06-1.32,1.46-2.11.94-.12,1.89-.38,2.8-.8-.35.92-.61,1.91-.71,2.96-.09.92-.07,1.81.04,2.67-1.05-1.2-2.29-2.11-3.59-2.72ZM109.78,90.09c-.5-.81-.95-1.65-1.34-2.5,1.59-1.78,2.59-4.31,2.59-7.14,0-.3-.02-.59-.04-.88.36.74.81,1.41,1.32,2.02-1.07,2.96-1.92,6.01-2.52,8.5ZM116.97,70.47c-.6-1.78-1.62-3.3-2.91-4.38-2.5,1.66-4.19,4.86-4.19,8.54,0,.3.02.59.04.88-.58-1.18-1.36-2.21-2.28-3,.06-.72.05-1.46-.06-2.21,2.62-1.41,4.6-4.4,4.97-8.03.21-2.12-.16-4.14-.96-5.83.71-.51,1.39-1.11,1.99-1.8.38-.44.71-.9,1.02-1.38-.24.78-.39,1.59-.45,2.45-.46-.06-.93-.1-1.39-.09-.79,2.89.04,6.42,2.45,9.19.86.99,1.85,1.78,2.9,2.38-.54.98-.91,2.09-1.13,3.26ZM290.19,60.79c.42,1.54,1.21,3.07,2.38,4.41.58.67,1.23,1.24,1.9,1.74-.43.89-.73,1.86-.91,2.89-.81-.8-1.7-1.46-2.64-1.96.48-2.48.1-4.92-.98-6.82.09-.09.17-.18.26-.27ZM293.16,89.84c-1.61-.19-3.17-.02-4.56.47.81-1.22,1.34-2.54,1.54-3.87.43.65.9,1.29,1.45,1.9.5.55,1.03,1.04,1.57,1.49ZM286.54,84.09c.68-.53,1.28-1.13,1.8-1.76.22.95.59,1.91,1.07,2.86-1.75-.37-3.69-.22-5.58.48.94-.39,1.85-.9,2.7-1.57ZM282.82,63.96c.71.02,1.43-.06,2.16-.22-.65.84-1.21,1.8-1.62,2.88-.35.92-.57,1.86-.69,2.78-.68.28-1.34.62-1.98,1.04.02-.26.04-.52.04-.79,0-1.22-.2-2.38-.54-3.46.96-.71,1.83-1.61,2.55-2.68.03.15.05.3.09.46ZM283.37,85.86c-.61.25-1.21.55-1.79.93-1.31.84-2.36,1.89-3.17,3.05.32-1.14.64-2.27.98-3.37,1.29.07,2.65-.13,3.98-.61ZM281.74,52.37c-.97.52-1.88,1.23-2.68,2.11.07-.74.08-1.49,0-2.27,0-.04-.01-.07-.02-.1.86.19,1.76.29,2.7.26ZM276.04,76.7c-.14.54-.23,1.09-.28,1.63-.86,1.22-1.72,2.74-2.58,4.6-.59-2.23-1.37-4.59-2.38-6.63,1.18-.54,2.31-1.31,3.31-2.32.5,1.05,1.16,1.96,1.93,2.72ZM270.78,54.26c.26-.29.48-.6.7-.9.41,2.31,1.47,4.32,2.94,5.75-1.23.46-2.42,1.17-3.48,2.12-.17-1.17-.52-2.35-1.09-3.49-.3-.61-.66-1.16-1.05-1.68.71-.51,1.38-1.11,1.99-1.8ZM264.6,49.56s.02.08.04.12c-.02.04-.05.06-.07.1.02-.07.03-.14.04-.21ZM263.8,67.61l.07.52c-.28.98-.44,2.03-.44,3.12s.18,2.21.48,3.23c-1.29-.56-2.63-.84-3.92-.81-.18.64-.26,1.31-.27,2l-1.55-.87c0-.68-.05-1.37-.19-2.06,1.2.48,2.4.76,3.56.81.39-1.82.11-3.95-.8-6.03,1.04.19,2.08.21,3.07.09ZM263.26,52.17h0c-.05-.01-.1-.04-.16-.05-.25.43-.44.9-.61,1.37-.24-.08-.49-.16-.73-.22-.3.54-.54,1.11-.72,1.72,0-1.51-.39-3.1-1.15-4.59,1.04.83,2.19,1.43,3.37,1.76ZM254.33,57.88c0-1.17-.23-2.37-.68-3.54,2.06,1.93,4.61,2.93,7.01,2.89-.04.73,0,1.47.12,2.23-.1-.05-.19-.13-.29-.18-2.01-1.12-4.16-1.55-6.15-1.4ZM255.22,81.49c1.04.06,2.06-.02,3.02-.27.25.62.55,1.35.87,2.17-1.1-.85-2.42-1.51-3.89-1.9ZM264.9,109.27c.09,2.87.18,6.32.26,10.08h-2.96v-3.83l1.11-.77-3.96-5.47h5.55ZM258.9,109.27l-3.96,5.47,1.11.77v3.83h-2.17l-4.11-10.08h9.13ZM242.84,111.48h3.46v6.71h-3.46v-6.71ZM182.77,96.6h55.38v14.2h-2.97v-8.83h-5.37v8.83h-5.62v-8.83h-5.37v8.83h-5.62v-8.83h-5.66v.12h.29s0,8.71,0,8.71h-5.62v-8.83h-5.37v8.83h-5.62v-8.83h-5.37v8.83h-3.07v-14.2ZM180.65,110.07v.73h-.07l.07-.73ZM174.43,111.48h3.46v6.71h-3.46v-6.71ZM170.95,109.27l-4.11,10.08h-2.17v-3.83l1.11-.77-3.96-5.47h9.13ZM161.39,109.27l-3.96,5.47,1.11.77v3.83h-2.96c.08-3.76.17-7.21.26-10.08h5.55ZM161.62,83.39c.32-.82.62-1.56.87-2.17.95.25,1.97.33,3.02.27-1.47.39-2.79,1.05-3.89,1.9ZM167.08,54.34c-.45,1.17-.68,2.37-.68,3.54-1.99-.16-4.15.28-6.16,1.4-.1.05-.19.13-.29.18.12-.76.16-1.49.12-2.23,2.39.04,4.95-.97,7.01-2.89ZM160.83,50.41c-.76,1.49-1.15,3.07-1.15,4.59-.18-.61-.41-1.19-.72-1.72-.25.06-.49.14-.74.22-.17-.48-.36-.94-.61-1.37-.05.01-.1.04-.15.05t0,0c1.18-.33,2.33-.93,3.37-1.76ZM156.86,68.12l.07-.52c.99.12,2.02.1,3.07-.09-.9,2.09-1.19,4.21-.8,6.03,1.15-.05,2.36-.33,3.56-.81-.14.69-.2,1.38-.19,2.06l-1.55.87c-.02-.69-.1-1.37-.28-2-1.29-.03-2.63.25-3.92.81.29-1.01.47-2.1.47-3.23s-.16-2.14-.44-3.12ZM156.12,49.56c.01.07.02.14.04.21-.02-.04-.05-.06-.07-.1.01-.04.02-.08.04-.12ZM149.25,53.36c.22.3.44.6.7.9.61.69,1.28,1.29,1.99,1.8-.39.52-.74,1.07-1.04,1.68-.57,1.14-.92,2.32-1.09,3.49-1.07-.95-2.26-1.66-3.48-2.12,1.46-1.43,2.52-3.43,2.94-5.75ZM146.62,73.98c1,1.01,2.13,1.78,3.31,2.32-1.01,2.04-1.79,4.4-2.38,6.63-.86-1.87-1.73-3.38-2.59-4.6-.04-.54-.13-1.09-.28-1.63.78-.76,1.44-1.67,1.94-2.72ZM141.69,52.11s-.01.06-.02.1c-.08.77-.07,1.53,0,2.27-.8-.88-1.7-1.59-2.68-2.11.93.03,1.84-.07,2.7-.26ZM137.9,63.96c.04-.15.06-.3.09-.46.71,1.08,1.58,1.98,2.55,2.68-.34,1.08-.54,2.24-.54,3.46,0,.27.02.53.04.79-.64-.42-1.3-.77-1.98-1.04-.11-.92-.33-1.85-.69-2.78-.41-1.07-.97-2.04-1.62-2.88.72.16,1.45.24,2.16.22ZM141.33,86.47c.33,1.1.66,2.24.97,3.37-.8-1.16-1.86-2.21-3.16-3.05-.58-.37-1.18-.68-1.79-.93,1.33.48,2.69.68,3.98.61ZM132.38,82.33c.52.63,1.12,1.23,1.8,1.76.85.67,1.77,1.19,2.7,1.57-1.89-.7-3.83-.84-5.58-.48.49-.95.85-1.91,1.08-2.86ZM132.11,90.31c-1.38-.49-2.94-.66-4.55-.47.54-.46,1.07-.94,1.57-1.49.55-.61,1.02-1.25,1.45-1.9.2,1.32.72,2.65,1.53,3.87ZM128.15,65.2c1.17-1.35,1.96-2.87,2.39-4.41.09.09.17.18.25.27-1.08,1.9-1.46,4.33-.98,6.82-.94.49-1.83,1.15-2.64,1.96-.18-1.03-.49-2-.91-2.89.68-.49,1.32-1.07,1.9-1.74ZM119.81,81.04c1.38.7,3,1.05,4.71.98-.31.3-.62.6-.92.93-2.84,3.14-4.01,6.97-3.36,9.99.26-.01.53-.05.8-.09-1.45,1.37-2.43,3.04-2.79,4.79,2.42,1.31,5.66,1.51,8.76.27,3.11-1.24,5.31-3.65,6.15-6.28.65.71,1.39,1.36,2.26,1.91,2.67,1.73,5.73,2.17,8.29,1.49.18.71.35,1.38.51,2l.82,3.22c.42,1.63.74,4.2.96,7.68h-12.54v-7.1h-4.8v7.1h-12.69c.62-12.63,2.34-21.39,3.85-26.88ZM146.27,118.71c.03.21.04.42.04.64h-1.83v-3.83l.57-.45v-.04s.48-.39.48-.39l-3.9-5.38h4.43c.08,1.61.15,3.39.19,5.33l-.14-.16c.01.6.07,2.67.16,4.27ZM138.34,115.51v3.83h-14.59v-3.83l1.11-.77-3.96-5.47h20.29l-3.96,5.47,1.11.77ZM115.74,114.74c-.17-.91.12-4.6.15-5.47h4.57l-3.92,5.38,1.07.87v3.83h-1.88c-.01-1.58,0-3.12.02-4.61ZM145.35,159.05h-28.24c-.03-.36-.06-.77-.09-1.22h28.38c-.02.4-.04.81-.05,1.22ZM123.37,136.53v6.72h-3.45v-6.72h3.45ZM119.91,132.01v-6.72h3.45v6.72h-3.45ZM123.37,147.75v6.72h-3.45v-6.72h3.45ZM132.78,136.53v6.72h-3.46v-6.72h3.46ZM129.32,132.01v-6.72h3.46v6.72h-3.46ZM132.78,147.75v6.72h-3.46v-6.72h3.46ZM142.18,136.53v6.72h-3.46v-6.72h3.46ZM138.73,132.01v-6.72h3.46v6.72h-3.46ZM142.18,147.75v6.72h-3.46v-6.72h3.46ZM115.76,122.32c0-.55-.02-1.1-.02-1.63h30.58v1.63h-30.56ZM147.44,163.98c.04-.96.09-2.12.15-3.46,0-.04,0-.07,0-.11.04-.8.07-1.66.11-2.58,0-.08,0-.16.01-.23.02-.42.04-.84.05-1.28,0-.2.02-.4.03-.6.01-.36.03-.74.04-1.11,0-.21.02-.42.03-.63.02-.45.04-.91.05-1.38,0-.15.01-.3.02-.45.02-.53.04-1.07.06-1.62,0-.17.01-.34.02-.51.02-.56.04-1.12.06-1.7,0-.16.01-.32.02-.49.02-.6.04-1.21.06-1.82,0-.1,0-.2,0-.31.02-.63.04-1.26.06-1.9,0-.07,0-.13,0-.2.02-.66.04-1.33.06-2,0-.13,0-.27.01-.4.02-.66.04-1.32.05-1.99,0-.13,0-.26.01-.4.02-.68.04-1.37.05-2.06,0-.1,0-.2,0-.3.02-.73.04-1.46.05-2.19v-.09c.02-.74.03-1.48.04-2.21,0-.05,0-.12,0-.18.01-.73.02-1.46.04-2.19,0-.09,0-.17,0-.26,0-.71.02-1.42.02-2.13,0-.11,0-.22,0-.32,0-.71.01-1.42.02-2.12v-.23c0-.73,0-1.46,0-2.19h0c0-.55,0-1.1,0-1.63v-.07c-.02-4.12-.1-7.99-.27-11.35,0,0,0-.03,0-.04-.02-.44-.05-.86-.07-1.28,0,0,0-.01,0-.02-.22-3.53-.54-6.4-1.03-8.25-2.88-11.13-5.76-23.99-9.6-24.19,0,0,5.95-.19,10.56,16.12,0,0,1.35-11.9,5.38-16.89,0,0-2.31,16.12-1.92,19.39,0,0,3.07-12.29,9.6-15.94,0,0-7.1,16.32-7.49,24.19-.06,1.29-.15,3.62-.25,6.62,0,.1,0,.19,0,.29-.09,2.86-.18,6.31-.26,10.08,0,.01,0,.03,0,.04-.12,5.35-.2,11.34-.22,17.19v.03c0,.79,0,1.58,0,2.36v.04c0,.77,0,1.55,0,2.31,0,.02,0,.05,0,.08,0,.76,0,1.52.01,2.27v.04c0,.76.02,1.51.03,2.24v.02c.07,5.06.23,9.62.51,13.08h0c.04.52.08,1,.13,1.46h0c.15,1.44.32,2.6.53,3.46h-6.83ZM257.05,143.25v-6.72h3.45v6.72h-3.45ZM260.5,147.75v6.72h-3.45v-6.72h3.45ZM257.05,132.01v-6.72h3.45v6.72h-3.45ZM253.7,122.32v35.51h11.21c-.03.42-.06.83-.09,1.22h-108.92c-.03-.39-.06-.8-.09-1.22h11.22v-35.51h-11.52c0-.55.02-1.1.03-1.63l24.92.09v-8.25l59.7-.02v8.27l25.02-.09c.01.54.02,1.08.03,1.63h-11.52ZM163.68,136.53v6.72h-3.46v-6.72h3.46ZM160.23,132.01v-6.72h3.46v6.72h-3.46ZM163.68,147.75v6.72h-3.46v-6.72h3.46ZM272.1,124.51c0,.08,0,.16,0,.23,0,.7,0,1.41.01,2.12,0,.11,0,.21,0,.32,0,.71.02,1.42.03,2.13,0,.09,0,.17,0,.26.01.73.02,1.46.04,2.19,0,.06,0,.12,0,.18.01.74.03,1.48.04,2.21v.09c.01.73.03,1.46.05,2.19,0,.1,0,.2,0,.3.02.7.04,1.38.05,2.06,0,.13,0,.27.01.4.02.67.04,1.34.06,1.99,0,.14,0,.27.01.4.02.67.04,1.34.06,2,0,.07,0,.13,0,.2.02.64.04,1.27.07,1.9,0,.11,0,.21,0,.31.02.61.04,1.22.06,1.82,0,.16.01.32.02.49.02.57.04,1.14.06,1.7,0,.17.01.34.02.51.02.55.04,1.09.06,1.62,0,.15.01.3.02.45.02.46.04.93.06,1.38,0,.22.02.42.03.63.01.38.03.75.04,1.11,0,.2.02.4.03.6.02.43.04.86.05,1.28,0,.08,0,.16.01.23.04.92.08,1.78.11,2.58,0,.04,0,.07,0,.11.06,1.34.11,2.5.16,3.46h-6.83c.21-.86.38-2.02.53-3.46h0c.05-.47.09-.96.13-1.47h0c.28-3.46.44-8.02.51-13.08v-.02c0-.74.02-1.48.03-2.24v-.04c0-.75.01-1.51.02-2.27v-.08c0-.76,0-1.54,0-2.31v-.04c0-.78,0-1.57,0-2.36v-.03c-.01-5.85-.11-11.84-.21-17.19,0-.02,0-.03,0-.04-.08-3.77-.17-7.22-.26-10.08,0-.1,0-.19-.01-.29-.09-3.01-.18-5.33-.25-6.62-.38-7.87-7.48-24.19-7.48-24.19,6.53,3.65,9.6,15.94,9.6,15.94.38-3.26-1.92-19.39-1.92-19.39,4.03,4.99,5.37,16.89,5.37,16.89,4.61-16.32,10.55-16.12,10.55-16.12-3.84.19-6.72,13.05-9.6,24.19-.48,1.85-.8,4.72-1.02,8.25,0,.01,0,.02,0,.02-.02.42-.05.85-.07,1.28,0,.01,0,.03,0,.04-.17,3.36-.25,7.23-.27,11.35v.07c0,.54,0,1.08,0,1.63h0c0,.73,0,1.45,0,2.19ZM274.43,115.41c.04-1.94.15-4.54.23-6.14h4.43l-3.99,5.38,1.14.87v3.83h-1.83c0-1.22-.22-2.82.02-3.94ZM303.62,159.05h-28.24c-.02-.41-.04-.81-.05-1.22h28.38c-.03.45-.06.86-.09,1.22ZM282,136.53v6.72h-3.46v-6.72h3.46ZM278.54,132.01v-6.72h3.46v6.72h-3.46ZM282,147.75v6.72h-3.46v-6.72h3.46ZM291.4,136.53v6.72h-3.46v-6.72h3.46ZM287.95,132.01v-6.72h3.46v6.72h-3.46ZM291.4,147.75v6.72h-3.46v-6.72h3.46ZM300.81,136.53v6.72h-3.45v-6.72h3.45ZM297.36,132.01v-6.72h3.45v6.72h-3.45ZM300.81,147.75v6.72h-3.45v-6.72h3.45ZM304.96,122.32h-30.56c0-.56,0-1.1,0-1.63h30.58c0,.54-.02,1.08-.03,1.63ZM296.97,115.51v3.83h-14.59v-3.83l1.11-.77-3.96-5.47h20.29l-3.96,5.47,1.11.77ZM305,119.35h-1.88v-3.83l1.09-.77v-.03s-3.94-5.45-3.94-5.45h4.56c.22,2.11.22,7.58.17,10.08ZM300.92,81.04c1.51,5.49,3.23,14.25,3.85,26.88h-12.69v-7.1h-4.8v7.1h-12.54c.21-3.47.54-6.04.96-7.68l.82-3.22c.16-.62.33-1.29.51-2,2.56.69,5.61.24,8.29-1.49.86-.55,1.61-1.2,2.25-1.91.84,2.64,3.04,5.04,6.15,6.28,3.1,1.24,6.34,1.04,8.76-.27-.36-1.74-1.35-3.42-2.79-4.79.27.04.54.08.8.09.64-3.02-.52-6.85-3.36-9.99-.29-.33-.61-.63-.92-.93,1.71.06,3.33-.28,4.71-.98ZM310.94,90.09c-.61-2.49-1.45-5.54-2.52-8.5.5-.61.95-1.28,1.31-2.02-.02.29-.05.59-.05.88,0,2.82,1.01,5.36,2.6,7.14-.39.84-.84,1.68-1.34,2.5ZM313.1,72.52c-.93.79-1.7,1.82-2.28,3,.02-.29.04-.58.04-.88,0-3.68-1.69-6.88-4.19-8.54-1.3,1.07-2.32,2.6-2.92,4.38-.21-1.18-.6-2.28-1.12-3.26,1.04-.6,2.03-1.39,2.9-2.38,2.42-2.78,3.25-6.3,2.45-9.19-.46-.01-.92.03-1.38.09-.06-.86-.22-1.68-.45-2.45.3.47.63.94,1.02,1.38.61.7,1.29,1.3,1.99,1.8-.8,1.69-1.17,3.71-.96,5.83.37,3.63,2.35,6.62,4.97,8.03-.11.75-.13,1.49-.06,2.21ZM315.87,64.67c.11-.86.13-1.75.04-2.67-.11-1.05-.36-2.04-.71-2.96.92.42,1.86.68,2.8.8.4.78.9,1.49,1.46,2.11-1.3.62-2.54,1.53-3.59,2.72ZM331.85,109.27v10.08h-7.66v-3.83l1.11-.77-3.96-5.47h10.51ZM313.17,109.27h7.73l-3.96,5.47,1.11.77v3.83h-4.82c-.09-4.1-.11-7.63-.06-10.08ZM323.67,125.29h3.46v6.72h-3.46v-6.72ZM323.67,136.53h3.46v6.72h-3.46v-6.72ZM323.67,147.75h3.46v6.72h-3.46v-6.72ZM315.03,125.29h3.45v6.72h-3.45v-6.72ZM315.03,136.53h3.45v6.72h-3.45v-6.72ZM315.03,147.75h3.45v6.72h-3.45v-6.72Z"/>
  <polygon class="st0" points="210.72 63.39 210.72 60.19 215.21 60.19 215.21 56.49 209.58 56.49 209.57 63.39 201.51 63.39 201.51 69.15 218.98 69.15 218.98 63.39 210.72 63.39"/>
  <rect class="st0" x="178.74" y="92.38" width="63.16" height="1.47"/>
  <path class="st0" d="M206.69,91.03v-5.6l-1.41-.77,4.96-6.62,4.96,6.62-1.41.77v5.6h26.16c-.25-.66-.52-1.31-.82-1.94v-16.3h-5.37v8.26c-3.93-4.3-9.02-7.51-14.78-9.15v-1.61h-17.46v1.61c-5.76,1.64-10.85,4.85-14.79,9.15v-8.26h-5.37v16.3c-.3.63-.57,1.28-.82,1.94h26.16Z"/>
  <polygon class="st0" points="241.31 113.78 178.16 113.78 178.06 115.15 241.22 115.15 241.31 113.78"/>
  <path class="st0" d="M182.58,116.37v22.08h3.88v-5.9c-.01-.1-.02-.2-.02-.3,0-.08.02-.16.02-.24l1.93-1.92c.08,0,.16-.03.24-.03.05,0,.09.02.14.02l2.04,2.04s.01.09.01.13c0,.11,0,.21-.02.3v5.9h6.61v-5.9c-.01-.1-.02-.2-.02-.3,0-.08.01-.16.02-.24l1.92-1.92c.08,0,.16-.03.24-.03.05,0,.09.02.14.02l2.04,2.04s.02.09.02.13c0,.11-.01.21-.02.3v5.9h3.49l3.12-3.12v-2.78c-.02-.1-.02-.2-.02-.3,0-.08.01-.16.02-.24l1.92-1.92c.08,0,.16-.03.24-.03.05,0,.09.02.14.02l2.04,2.04s.01.09.01.13c0,.11,0,.21-.02.3v2.69l3.21,3.21h3.4v-5.9c-.01-.1-.02-.2-.02-.3,0-.08.02-.16.02-.24l1.93-1.92c.08,0,.16-.03.24-.03.05,0,.09.02.14.02l2.04,2.04s.01.09.01.13c0,.11,0,.21-.02.3v5.9h6.61v-5.9c-.01-.1-.02-.2-.02-.3,0-.02,0-.05,0-.07l2.11-2.11s.05-.01.07-.01c.11,0,.2.02.31.04l1.85,1.86c.01.1.03.2.03.3s0,.21-.02.3v5.9h3.88v-22.08h-55.86ZM188.57,118.56h.02l2.23,2.23c0,.09,0,.18-.02.26v5.65h-4.33v-5.65c-.01-.1-.02-.2-.02-.3,0-.02,0-.04,0-.06l2.13-2.13ZM199.51,118.56h.01l2.23,2.23c0,.09,0,.18-.02.26v5.65h-4.33v-5.65c-.01-.1-.02-.2-.02-.3,0-.02,0-.04,0-.06l2.13-2.13ZM210.45,118.56h.01l2.23,2.23c0,.09-.01.18-.02.26v5.65h-4.33v-5.65c-.02-.1-.02-.2-.02-.3,0-.02,0-.04,0-.06l2.13-2.13ZM221.39,118.56h.02l2.23,2.23c0,.09,0,.18-.02.26v5.65h-4.33v-5.65c-.01-.1-.02-.2-.02-.3,0-.02,0-.04,0-.06l2.13-2.13ZM232.48,118.57h.03l2.06,2.06s.01.08.01.12c0,.1,0,.2-.02.3v5.65h-4.33v-5.65c0-.06-.01-.14-.01-.21l2.27-2.27Z"/>
</svg>